<svg width="201" height="235" viewBox="0 0 201 235" fill="none" xmlns="http://www.w3.org/2000/svg">
<rect x="0.5" width="200" height="222.932" rx="6.8254" fill="#F2C94C"/>
<mask id="mask0" mask-type="alpha" maskUnits="userSpaceOnUse" x="0" y="0" width="201" height="223">
<rect x="0.5" width="200" height="222.932" rx="6.8254" fill="#F2C94C"/>
</mask>
<g mask="url(#mask0)">
<rect x="33.5156" y="29.9365" width="133.634" height="239.493" rx="10.2381" fill="#333333"/>
<rect x="87.668" y="43.4492" width="25.5256" height="4.50458" rx="2.25229" fill="#C4C4C4"/>
<ellipse cx="69.2758" cy="165.073" rx="10.1352" ry="9.75991" fill="#D9D9D9"/>
<rect x="45.6211" y="58.4663" width="109.61" height="179.432" fill="#EBEBEB"/>
<rect x="45.6211" y="58.4663" width="109.61" height="179.432" stroke="black"/>
<path d="M100.181 122.709C109.996 122.709 117.952 114.346 117.952 104.03C117.952 93.7138 109.996 85.3511 100.181 85.3511C90.3668 85.3511 82.4106 93.7138 82.4106 104.03C82.4106 114.346 90.3668 122.709 100.181 122.709Z" fill="#EB6101"/>
<path d="M100.181 124.95C83.8323 124.95 70.5635 138.648 70.5635 157.326H129.799C129.799 138.648 116.53 124.95 100.181 124.95Z" fill="#EB6101"/>
<rect x="45.6211" y="157.565" width="109.61" height="80.3317" fill="#696969"/>
<rect x="123.43" y="64.9688" width="24.8408" height="31.2105" rx="2.73016" fill="#C3C3C3"/>
<path d="M91.4219 161.319C91.4219 160.49 92.0941 159.817 92.9234 159.817H108.689C109.518 159.817 110.191 160.49 110.191 161.319C110.191 162.148 109.518 162.82 108.689 162.82H92.9234C92.0941 162.82 91.4219 162.148 91.4219 161.319Z" fill="#7E7E7E"/>
<rect x="55.3867" y="171.83" width="15.7658" height="12.7629" rx="2.04762" fill="#565656"/>
<rect x="55.3867" y="186.845" width="15.7658" height="12.7629" rx="2.04762" fill="#565656"/>
<rect x="55.3867" y="201.862" width="15.7658" height="12.7629" rx="2.04762" fill="#565656"/>
<rect x="55.3867" y="216.877" width="15.7658" height="12.7629" rx="2.04762" fill="#565656"/>
<rect x="73.4062" y="171.83" width="16.5166" height="12.7629" rx="2.04762" fill="#747474"/>
<rect x="73.4062" y="186.845" width="16.5166" height="12.7629" rx="2.04762" fill="#747474"/>
<rect x="73.4062" y="201.862" width="16.5166" height="12.7629" rx="2.04762" fill="#747474"/>
<rect x="73.4062" y="216.877" width="16.5166" height="12.7629" rx="2.04762" fill="#747474"/>
<rect x="92.166" y="171.83" width="15.7658" height="12.7629" rx="2.04762" fill="#747474"/>
<rect x="92.166" y="186.845" width="15.7658" height="12.7629" rx="2.04762" fill="#747474"/>
<rect x="92.166" y="201.862" width="15.7658" height="12.7629" rx="2.04762" fill="#747474"/>
<rect x="92.166" y="216.877" width="15.7658" height="12.7629" rx="2.04762" fill="#747474"/>
<rect x="110.181" y="171.83" width="17.2673" height="12.7629" rx="2.04762" fill="#747474"/>
<rect x="110.181" y="186.845" width="17.2673" height="12.7629" rx="2.04762" fill="#747474"/>
<rect x="110.181" y="201.862" width="17.2673" height="12.7629" rx="2.04762" fill="#747474"/>
<rect x="110.181" y="216.877" width="17.2673" height="12.7629" rx="2.04762" fill="#747474"/>
<rect x="129.724" y="171.83" width="15.7658" height="12.7629" rx="2.04762" fill="#565656"/>
<rect x="129.724" y="186.845" width="15.7658" height="12.7629" rx="2.04762" fill="#565656"/>
<path fill-rule="evenodd" clip-rule="evenodd" d="M131.774 201.862C130.643 201.862 129.726 202.779 129.726 203.909V218.922C129.723 218.967 129.722 219.013 129.722 219.06V227.591C129.722 228.722 130.638 229.639 131.769 229.639H143.715C144.845 229.639 145.762 228.722 145.762 227.591V220.996C145.765 220.951 145.767 220.905 145.767 220.858V203.909C145.767 202.779 144.85 201.862 143.719 201.862H131.774Z" fill="#565656"/>
<path fill-rule="evenodd" clip-rule="evenodd" d="M66.7958 64.7837H53.1982V76.4389H66.7958V71.012L73.6246 74.9533L73.402 66.3936L66.7958 69.9809V64.7837Z" fill="#EB6101"/>
<rect x="45.6211" y="133.542" width="109.61" height="24.0245" fill="#525252" fill-opacity="0.5"/>
<mask id="mask1" mask-type="alpha" maskUnits="userSpaceOnUse" x="123" y="64" width="26" height="33">
<rect x="123.43" y="64.9688" width="24.8408" height="31.2105" rx="2.73016" fill="#C3C3C3"/>
</mask>
<g mask="url(#mask1)">
<path d="M135.85 84.2317C139.333 84.2317 142.156 81.3454 142.156 77.785C142.156 74.2246 139.333 71.3384 135.85 71.3384C132.368 71.3384 129.545 74.2246 129.545 77.785C129.545 81.3454 132.368 84.2317 135.85 84.2317Z" fill="#3B8FC9"/>
<path d="M135.85 85.0052C130.049 85.0052 125.341 89.7328 125.341 96.1794H146.36C146.36 89.7328 141.652 85.0052 135.85 85.0052Z" fill="#3B8FC9"/>
</g>
<rect x="53.9033" y="141.635" width="54.0544" height="1.50102" rx="0.750511" fill="white"/>
<rect x="53.9033" y="149.892" width="74.3248" height="1.50102" rx="0.750511" fill="white"/>
</g>
</svg>
