<svg width="201" height="235" fill="none" xmlns="http://www.w3.org/2000/svg">
<rect x=".5" width="200" height="222.932" rx="6.825" fill="#F2C94C"/>
<mask id="a" maskUnits="userSpaceOnUse" x="0" y="0" width="201" height="223">
<rect x=".5" width="200" height="222.932" rx="6.825" fill="#F2C94C"/>
</mask>
<g mask="url(#a)"><rect x="33.516" y="29.936" width="133.634" height="239.493" rx="10.238" fill="#333"/>
<rect x="87.668" y="43.449" width="25.526" height="4.505" rx="2.252" fill="#C4C4C4"/>
<ellipse cx="69.276" cy="165.073" rx="10.135" ry="9.76" fill="#D9D9D9"/>
<path fill="#EBEBEB" d="M45.621 58.466h109.61v179.432H45.621z"/>
<path stroke="#000" d="M45.621 58.466h109.61v179.432H45.621z"/>
<path d="M100.181 122.709c9.815 0 17.771-8.363 17.771-18.679 0-10.316-7.956-18.679-17.771-18.679-9.814 0-17.77 8.363-17.77 18.679 0 10.316 7.956 18.679 17.77 18.679zM100.181 124.95c-16.349 0-29.617 13.698-29.617 32.376h59.235c0-18.678-13.269-32.376-29.618-32.376z" fill="#EB6101"/>
<path fill="#696969" d="M45.621 157.565h109.61v80.332H45.621z"/>
<rect x="123.43" y="64.969" width="24.841" height="31.21" rx="2.73" fill="#C3C3C3"/>
<path d="M91.422 161.319c0-.829.672-1.502 1.501-1.502h15.766a1.503 1.503 0 010 3.003H92.923c-.829 0-1.501-.672-1.501-1.501z" fill="#7E7E7E"/>
<rect x="55.387" y="171.83" width="15.766" height="12.763" rx="2.048" fill="#565656"/>
<rect x="55.387" y="186.845" width="15.766" height="12.763" rx="2.048" fill="#565656"/>
<rect x="55.387" y="201.862" width="15.766" height="12.763" rx="2.048" fill="#565656"/>
<rect x="55.387" y="216.877" width="15.766" height="12.763" rx="2.048" fill="#565656"/>
<rect x="73.406" y="171.83" width="16.517" height="12.763" rx="2.048" fill="#747474"/>
<rect x="73.406" y="186.845" width="16.517" height="12.763" rx="2.048" fill="#747474"/>
<rect x="73.406" y="201.862" width="16.517" height="12.763" rx="2.048" fill="#747474"/>
<rect x="73.406" y="216.877" width="16.517" height="12.763" rx="2.048" fill="#747474"/>
<rect x="92.166" y="171.83" width="15.766" height="12.763" rx="2.048" fill="#747474"/>
<rect x="92.166" y="186.845" width="15.766" height="12.763" rx="2.048" fill="#747474"/>
<rect x="92.166" y="201.862" width="15.766" height="12.763" rx="2.048" fill="#747474"/>
<rect x="92.166" y="216.877" width="15.766" height="12.763" rx="2.048" fill="#747474"/>
<rect x="110.181" y="171.83" width="17.267" height="12.763" rx="2.048" fill="#747474"/>
<rect x="110.181" y="186.845" width="17.267" height="12.763" rx="2.048" fill="#747474"/>
<rect x="110.181" y="201.862" width="17.267" height="12.763" rx="2.048" fill="#747474"/>
<rect x="110.181" y="216.877" width="17.267" height="12.763" rx="2.048" fill="#747474"/>
<rect x="129.724" y="171.83" width="15.766" height="12.763" rx="2.048" fill="#565656"/>
<rect x="129.724" y="186.845" width="15.766" height="12.763" rx="2.048" fill="#565656"/>
<path fill-rule="evenodd" clip-rule="evenodd" d="M131.774 201.862a2.048 2.048 0 00-2.048 2.047v15.013a2.079 2.079 0 00-.004.138v8.531c0 1.131.916 2.048 2.047 2.048h11.946c1.13 0 2.047-.917 2.047-2.048v-6.595a2.07 2.07 0 00.005-.138v-16.949c0-1.13-.917-2.047-2.048-2.047h-11.945z" fill="#565656"/>
<path fill-rule="evenodd" clip-rule="evenodd" d="M66.796 64.784H53.198v11.655h13.598v-5.427l6.829 3.941-.223-8.56-6.606 3.588v-5.197z" fill="#EB6101"/>
<path fill="#525252" fill-opacity=".5" d="M45.621 133.542h109.61v24.024H45.621z"/>
<mask id="b" maskUnits="userSpaceOnUse" x="123" y="64" width="26" height="33">
<rect x="123.43" y="64.969" width="24.841" height="31.21" rx="2.73" fill="#C3C3C3"/>
</mask>
<g mask="url(#b)" fill="#3B8FC9">
<path d="M135.85 84.232c3.483 0 6.306-2.887 6.306-6.447s-2.823-6.447-6.306-6.447c-3.482 0-6.305 2.887-6.305 6.447s2.823 6.447 6.305 6.447zM135.85 85.005c-5.801 0-10.509 4.728-10.509 11.174h21.019c0-6.446-4.708-11.174-10.51-11.174z"/>
</g>
<rect x="53.903" y="141.635" width="54.054" height="1.501" rx=".751" fill="#fff"/>
<rect x="53.903" y="149.892" width="74.325" height="1.501" rx=".751" fill="#fff"/>
</g>
</svg>